<svg width="103" height="30" viewBox="0 0 103 30" fill="none" xmlns="http://www.w3.org/2000/svg">
<path d="M1.32911 17.9904V3.25202H4.73798V4.71583H4.77809C6.12159 3.27207 7.30467 2.97129 8.78853 2.97129C12.2776 2.97129 15.0248 4.85619 15.0248 8.62601C15.0248 12.1151 12.418 14.401 9.02916 14.401C7.02394 14.401 5.60023 13.7594 4.8984 12.7969H4.8583V17.9904H1.32911ZM4.73798 8.68617C4.73798 10.7114 6.282 11.7943 8.0466 11.7943C9.83124 11.7943 11.3753 10.7114 11.3753 8.68617C11.3753 6.66089 9.83124 5.57807 8.0466 5.57807C6.282 5.57807 4.73798 6.66089 4.73798 8.68617ZM33.6597 14V7.54319C33.6597 6.11948 32.5368 5.69839 31.494 5.69839C30.0302 5.69839 28.8271 6.50048 28.8271 8.18486V14H25.2979V7.54319C25.2979 6.11948 24.1549 5.69839 23.1724 5.69839C21.6685 5.69839 20.4653 6.50048 20.4653 8.18486V14H16.9361V3.25202H20.345V4.81609H20.3851C21.0268 3.91374 22.6911 2.97129 24.7766 2.97129C26.8419 2.97129 27.9448 3.77337 28.4862 4.99656C29.4688 3.71322 30.9326 2.97129 32.9178 2.97129C35.0834 2.97129 37.1889 3.89369 37.1889 6.72105V14H33.6597ZM43.3426 14V5.11687H39.1316V2.6304C42.1996 2.57024 43.3626 2.30956 44.1647 0.0837702H46.9921V14H43.3426ZM0.817006 27V20.4599H2.5199V21.4471H2.54458C3.09987 20.7437 3.95132 20.2871 5.1236 20.2871C6.54268 20.2871 7.90006 20.7807 7.90006 22.5577V27H6.19717V23.1006C6.19717 22.3972 5.96271 21.5952 4.55597 21.5952C3.6675 21.5952 2.5199 22.0888 2.5199 23.4832V27H0.817006ZM8.99271 23.7299C8.99271 21.9283 10.1156 20.2131 13.0402 20.2131C15.9647 20.2131 17.0876 21.9283 17.0876 23.7299C17.0876 25.5439 15.9647 27.2468 13.0402 27.2468C10.1156 27.2468 8.99271 25.5439 8.99271 23.7299ZM10.7696 23.7299C10.7696 24.8652 11.399 25.9388 13.0402 25.9388C14.6814 25.9388 15.3107 24.8652 15.3107 23.7299C15.3107 22.5947 14.6814 21.5211 13.0402 21.5211C11.399 21.5211 10.7696 22.5947 10.7696 23.7299ZM18.2313 19.4234V18.0413H19.9342V19.4234H18.2313ZM18.2313 27V20.4599H19.9342V27H18.2313ZM21.0301 24.9516H22.8811C22.9181 25.9388 24.0657 26.0869 24.6827 26.0869C25.5218 26.0869 26.4596 25.8771 26.4596 25.2477C26.4596 24.7295 26.1758 24.5814 24.3372 24.3223C22.3135 24.0631 21.2522 23.804 21.2522 22.3232C21.2522 20.4599 23.424 20.2131 24.5223 20.2131C25.5341 20.2131 27.9651 20.3488 28.0638 22.4589H26.2869C26.1511 21.4718 25.0159 21.373 24.4359 21.373C23.4611 21.373 22.9551 21.7803 22.9551 22.1258C22.9551 22.6564 23.1155 22.7428 24.7567 22.9772C26.9039 23.2734 28.3106 23.5078 28.3106 25.0133C28.3106 26.6792 26.7188 27.2468 24.695 27.2468C23.313 27.2468 21.0795 26.963 21.0301 24.9516ZM30.932 23.0759H35.325C35.1276 21.7556 33.943 21.373 33.1162 21.373C32.3141 21.373 31.2282 21.7432 30.932 23.0759ZM37.102 24.1618H30.932C30.9691 24.9022 31.4627 26.0128 33.1532 26.0128C34.2761 26.0128 34.7697 25.6179 35.1029 25.075H36.9539C36.5837 25.8154 35.6952 27.2468 33.2026 27.2468C30.241 27.2468 29.1551 25.5316 29.1551 23.7916C29.1551 21.6075 30.7716 20.2131 33.0915 20.2131C36.0037 20.2131 37.102 22.0024 37.102 23.915V24.1618ZM50.1358 18.0413V27H48.4329V26.0992H48.4082C48.2725 26.4941 47.2606 27.2468 45.9032 27.2468C43.4106 27.2468 42.3247 25.4328 42.3247 23.7546C42.3247 22.1011 43.4106 20.2871 45.9032 20.2871C46.9398 20.2871 47.9023 20.608 48.4082 21.3977H48.4329V18.0413H50.1358ZM44.1016 23.7546C44.1016 24.8776 44.6939 25.9388 46.3104 25.9388C47.9023 25.9388 48.5069 24.8776 48.5069 23.7546C48.5069 22.6687 47.9023 21.5952 46.3104 21.5952C44.6939 21.5952 44.1016 22.6687 44.1016 23.7546ZM53.081 23.0759H57.474C57.2766 21.7556 56.092 21.373 55.2652 21.373C54.4631 21.373 53.3772 21.7432 53.081 23.0759ZM59.251 24.1618H53.081C53.1181 24.9022 53.6117 26.0128 55.3022 26.0128C56.4251 26.0128 56.9187 25.6179 57.2519 25.075H59.1029C58.7327 25.8154 57.8442 27.2468 55.3516 27.2468C52.39 27.2468 51.3041 25.5316 51.3041 23.7916C51.3041 21.6075 52.9206 20.2131 55.2405 20.2131C58.1527 20.2131 59.251 22.0024 59.251 23.915V24.1618ZM60.0861 24.9516H61.9371C61.9741 25.9388 63.1217 26.0869 63.7387 26.0869C64.5778 26.0869 65.5156 25.8771 65.5156 25.2477C65.5156 24.7295 65.2318 24.5814 63.3932 24.3223C61.3695 24.0631 60.3082 23.804 60.3082 22.3232C60.3082 20.4599 62.48 20.2131 63.5783 20.2131C64.5901 20.2131 67.0211 20.3488 67.1198 22.4589H65.3429C65.2071 21.4718 64.0719 21.373 63.4919 21.373C62.5171 21.373 62.0111 21.7803 62.0111 22.1258C62.0111 22.6564 62.1715 22.7428 63.8127 22.9772C65.9599 23.2734 67.3666 23.5078 67.3666 25.0133C67.3666 26.6792 65.7748 27.2468 63.751 27.2468C62.369 27.2468 60.1355 26.963 60.0861 24.9516ZM68.4702 19.4234V18.0413H70.1731V19.4234H68.4702ZM68.4702 27V20.4599H70.1731V27H68.4702ZM77.6117 20.4352H79.3146V26.7779C79.3146 28.3204 78.3151 29.7148 75.4276 29.7148C73.4039 29.7148 71.7256 29.2582 71.5899 27.58H73.3668C73.5273 28.4314 74.354 28.5548 75.3782 28.5548C77.3279 28.5548 77.6117 27.5183 77.6117 26.6668V25.8771H77.5747C76.748 26.6668 75.9088 26.926 74.9093 26.926C73.1817 26.926 71.2691 26.0498 71.2691 23.6189C71.2691 21.9407 72.3673 20.2871 74.897 20.2871C76.2297 20.2871 77.1922 20.7067 77.5871 21.3977H77.6117V20.4352ZM73.046 23.5942C73.046 24.5567 73.626 25.6179 75.4153 25.6179C76.7109 25.6179 77.6117 24.7912 77.6117 23.5695C77.6117 21.99 76.1556 21.5952 75.2672 21.5952C73.9838 21.5952 73.046 22.4219 73.046 23.5942ZM80.7487 27V20.4599H82.4515V21.4471H82.4762C83.0315 20.7437 83.883 20.2871 85.0553 20.2871C86.4743 20.2871 87.8317 20.7807 87.8317 22.5577V27H86.1288V23.1006C86.1288 22.3972 85.8944 21.5952 84.4876 21.5952C83.5992 21.5952 82.4515 22.0888 82.4515 23.4832V27H80.7487ZM90.7753 23.0759H95.1683C94.9709 21.7556 93.7863 21.373 92.9595 21.373C92.1574 21.373 91.0715 21.7432 90.7753 23.0759ZM96.9452 24.1618H90.7753C90.8124 24.9022 91.3059 26.0128 92.9965 26.0128C94.1194 26.0128 94.613 25.6179 94.9462 25.075H96.7972C96.427 25.8154 95.5385 27.2468 93.0459 27.2468C90.0843 27.2468 88.9984 25.5316 88.9984 23.7916C88.9984 21.6075 90.6149 20.2131 92.9348 20.2131C95.847 20.2131 96.9452 22.0024 96.9452 23.915V24.1618ZM98.1136 27V20.4599H99.8165V21.7309H99.8412C100.31 20.9905 100.989 20.2871 102.309 20.2871C102.568 20.2871 102.753 20.3118 102.988 20.3488V22.0271C102.507 21.879 102.198 21.8666 101.902 21.8666C101.038 21.8666 99.8165 22.3109 99.8165 23.841V27H98.1136Z" fill="black"/>
</svg>
