<svg width="27" height="27" viewBox="0 0 27 27" fill="none" xmlns="http://www.w3.org/2000/svg">
<rect width="3" height="3" fill="black"/>
<rect y="12" width="3" height="3" fill="black"/>
<rect y="18" width="3" height="3" fill="black"/>
<rect x="6" width="3" height="3" fill="black"/>
<rect x="6" y="6" width="3" height="3" fill="black"/>
<rect x="6" y="12" width="3" height="3" fill="black"/>
<rect x="6" y="24" width="3" height="3" fill="black"/>
<rect x="12" y="6" width="3" height="3" fill="black"/>
<rect x="12" y="18" width="3" height="3" fill="black"/>
<rect x="12" y="24" width="3" height="3" fill="black"/>
<rect x="18" width="3" height="3" fill="black"/>
<rect x="18" y="6" width="3" height="3" fill="black"/>
<rect x="18" y="12" width="3" height="3" fill="black"/>
<rect x="18" y="18" width="3" height="3" fill="black"/>
<rect x="27" width="3" height="3" transform="rotate(90 27 0)" fill="black"/>
<rect x="27" y="12" width="3" height="3" transform="rotate(90 27 12)" fill="black"/>
<rect x="27" y="18" width="3" height="3" transform="rotate(90 27 18)" fill="black"/>
<rect x="27" y="24" width="3" height="3" transform="rotate(90 27 24)" fill="black"/>
<rect y="24" width="3" height="3" fill="black"/>
</svg>
