<svg width="151" height="52" viewBox="0 0 151 52" fill="none" xmlns="http://www.w3.org/2000/svg">
<path d="M18.4156 0.319283C16.893 0.319283 15.2519 0.724253 13.4831 1.57647C11.6796 2.44523 10.4032 3.96289 9.56785 5.78552C8.0798 9.03224 8.2576 12.2166 10.1707 15.3724C10.1154 15.372 10.0601 15.3715 10.0049 15.3715C7.25792 15.3715 4.88989 16.1529 2.96902 18.0393C1.02242 19.9509 0.0264007 22.2947 0.00047534 25.0256C-0.0201178 27.2157 0.628381 29.203 1.95131 30.9551C3.94388 33.5935 6.64435 34.7818 10.0045 34.7818C10.0378 34.7818 10.0715 34.7817 10.1049 34.7814C8.67958 37.2154 8.14729 39.7114 8.79818 42.391C9.44834 45.0673 10.956 47.1302 13.3241 48.5251C14.7649 49.3738 16.3147 49.7959 17.934 49.7959C18.3801 49.7959 18.8313 49.7637 19.2871 49.6999C22.6175 49.2324 24.9945 47.3725 26.6381 44.4054C26.76 44.5993 26.8354 44.7125 26.904 44.8293C28.7798 48.0267 31.5641 49.7453 35.2746 49.7453H35.283C38.8267 49.7429 41.6005 48.1455 43.3831 45.1028C45.2527 41.9118 45.2283 38.5978 43.5065 35.3112C43.412 35.1308 43.3307 34.9437 43.212 34.693C43.3881 34.7007 43.5628 34.7045 43.7358 34.7045C46.1423 34.7045 48.2382 33.9595 50.045 32.3996C52.0001 30.7117 53.0608 28.5423 53.3201 25.9991C53.5529 23.7179 53.0469 21.5735 51.7697 19.6608C49.7781 16.6786 46.8987 15.3481 43.2803 15.3481C43.2579 15.3481 43.2353 15.3481 43.2129 15.3483C44.7296 13.0003 45.1356 10.5569 44.5858 7.95465C44.034 5.34268 42.6471 3.26766 40.4122 1.81856C38.8933 0.833443 37.2283 0.334727 35.4572 0.334727C35.1045 0.334727 34.7472 0.354396 34.3863 0.394102C30.9195 0.775355 28.4338 2.61343 26.7766 5.60463C24.469 2.22519 21.7197 0.319283 18.4156 0.319283ZM18.4156 3.4206C19.1856 3.4206 21.5292 3.4206 24.2149 7.35336L26.5679 10.7988C26.7902 11.1242 27.2774 11.1016 27.4683 10.7569L29.4903 7.10722C30.7198 4.88771 32.3833 3.73421 34.7254 3.47685C34.9721 3.44964 35.2183 3.43586 35.4572 3.43586C36.6343 3.43586 37.7031 3.75792 38.7243 4.42025C40.2405 5.40353 41.165 6.76935 41.5511 8.59547C41.9431 10.451 41.6432 12.062 40.6071 13.6656L38.0322 17.6514C37.8042 18.0044 38.0587 18.4696 38.479 18.468L43.225 18.4492H43.2803C46.0124 18.4492 47.8349 19.354 49.1899 21.3827C50.0555 22.6792 50.3971 24.0866 50.2342 25.6848C50.0496 27.4955 49.3246 28.9242 48.0179 30.0523C46.792 31.1106 45.4314 31.6034 43.7358 31.6034C43.6086 31.6034 43.4778 31.6006 43.3473 31.5948L39.0808 31.4086C38.6822 31.3913 38.4082 31.804 38.5794 32.1643L40.4093 36.022C40.4451 36.0974 40.4769 36.1661 40.5067 36.2307C40.5825 36.3941 40.6608 36.5636 40.7586 36.7502C42.0223 39.1621 42.0056 41.318 40.7066 43.5353C39.4822 45.6254 37.7073 46.6423 35.2746 46.6442C32.7436 46.6442 30.934 45.569 29.5793 43.2598C29.5057 43.1344 29.4381 43.0283 29.3664 42.916C29.3364 42.869 29.3029 42.8164 29.2639 42.7548L26.9459 39.0684C26.7315 38.7272 26.2298 38.7412 26.0345 39.0936L23.9244 42.9032C22.6894 45.133 21.0789 46.3168 18.8557 46.6287C18.5443 46.6725 18.2341 46.6945 17.934 46.6945C16.8527 46.6945 15.86 46.4194 14.8985 45.853C13.2754 44.8971 12.2657 43.525 11.8125 41.6592C11.3843 39.8963 11.6923 38.2086 12.7817 36.3483L15.0695 32.4413C15.2773 32.0869 15.0195 31.6413 14.6086 31.6446L10.0805 31.6803L10.0045 31.6806C7.50191 31.6806 5.78165 30.8804 4.42691 29.0865C3.52136 27.8872 3.08798 26.5686 3.10232 25.055C3.12034 23.1535 3.78778 21.5824 5.1427 20.2516C6.37866 19.038 7.92352 18.4728 10.0049 18.4728C10.0483 18.4728 10.0919 18.473 10.1355 18.4735L14.7639 18.5263C15.1793 18.5309 15.438 18.0775 15.2229 17.7224L12.8236 13.7648C11.4633 11.5214 11.3249 9.39639 12.3878 7.07744C12.9854 5.77356 13.8067 4.8629 14.8296 4.37024C16.1378 3.74009 17.3443 3.4206 18.4156 3.4206Z" fill="black"/>
<path d="M102.632 48.5313V47.9622C102.63 45.8642 102.654 43.7656 102.619 41.6682C102.604 40.8621 102.597 40.0345 102.098 39.3136C101.47 38.4027 100.364 38.1812 99.3955 38.7356C98.2813 39.3741 97.9356 40.3871 97.9246 41.5658C97.9043 43.6978 97.9172 45.8302 97.9172 47.9624C97.9172 48.1453 97.9172 48.3282 97.9172 48.5381H95.9737C95.9737 48.3376 95.9737 48.1569 95.9737 47.976C95.9737 45.9291 96.005 43.8814 95.9572 41.8357C95.9406 41.1147 95.8303 40.3652 95.5968 39.6864C95.1611 38.4176 93.8004 38.0533 92.5685 38.8553C91.6859 39.4288 91.2741 40.298 91.2594 41.318C91.2281 43.5009 91.2465 45.6846 91.2447 47.8679V48.5221H89.3563V36.9729H91.1178C91.1435 37.1744 91.1693 37.3819 91.1969 37.5952C93.9733 36.1509 95.4755 36.3363 97.1321 38.2393C97.3601 38.0628 97.612 37.9005 97.8271 37.6974C99.0204 36.5641 100.429 36.4501 101.916 36.877C103.441 37.3147 104.411 38.5235 104.456 40.1211C104.527 42.8478 104.524 45.5763 104.549 48.3043C104.549 48.3688 104.527 48.4335 104.509 48.5313H102.632Z" fill="black"/>
<path d="M115.21 42.8907C115.186 42.4995 115.216 42.0962 115.129 41.719C114.857 40.5239 114.438 39.409 113.18 38.884C111.886 38.3439 110.356 38.7366 109.58 40.0504C108.753 41.4539 108.613 42.982 109.082 44.5377C109.448 45.751 110.108 46.7276 111.468 46.9958C112.689 47.2365 113.835 46.753 114.392 45.8933C114.973 44.9968 115.307 43.9931 115.21 42.8907ZM108.966 47.5633V51.7544H107.087V37.0998H108.822C108.839 37.4252 108.854 37.7426 108.874 38.1237C109.087 37.9882 109.271 37.8886 109.437 37.7629C110.904 36.6443 112.54 36.5586 114.178 37.1724C115.21 37.5581 115.949 38.3748 116.46 39.4002C117.369 41.2234 117.354 43.1256 116.953 45.0295C116.633 46.5503 115.802 47.8517 114.333 48.4733C112.503 49.2473 110.707 49.1363 109.172 47.6777C109.139 47.6466 109.091 47.6319 108.966 47.5633Z" fill="black"/>
<path d="M74.2723 25.7908C74.2734 24.3785 74.1765 24.1941 73.5342 22.8757C72.7728 21.3132 70.0843 21.1522 69.0361 22.4628C68.0462 23.7009 67.7566 25.1094 67.9754 26.6272C68.1173 27.6107 68.4648 28.5703 69.2222 29.2416C70.6095 30.4717 72.8462 30.0563 73.6707 28.4394C74.1059 27.5861 74.2752 26.7197 74.2723 25.7908ZM68.0789 34.6863H66.1783V19.974H67.8781C67.898 20.3325 67.9182 20.6932 67.9419 21.12C68.3576 20.8308 68.7116 20.556 69.0916 20.3251C70.5776 19.4229 72.0817 19.4595 73.5925 20.2711C75.3371 21.2081 75.9705 22.8009 76.2218 24.6443C76.3743 25.7621 76.2759 26.8612 76.0341 27.9425C75.7519 29.2043 75.1082 30.3179 74.0237 31.0155C72.3531 32.0901 70.3394 32.3479 68.3725 30.6848C68.3124 30.6342 68.2284 30.612 68.0789 30.539V34.6863Z" fill="black"/>
<path d="M93.2083 8.17699C93.1072 6.40748 91.9598 5.09551 90.2848 5.09919C88.4847 5.10305 87.3503 6.52256 87.2528 8.17699H93.2083ZM95.4717 9.98821H87.2087C87.2418 11.7062 87.8835 12.9039 89.4519 13.4075C91.1435 13.9508 92.4158 13.4943 93.8224 11.5858C94.3612 11.8947 94.9091 12.2094 95.5471 12.5757C95.0801 13.1202 94.6829 13.6919 94.181 14.1438C92.7394 15.4366 91.0166 15.7561 89.1779 15.3118C87.2179 14.8386 85.9952 13.5677 85.4233 11.6257C84.9287 9.94593 84.9526 8.27477 85.5208 6.64976C86.3114 4.39514 88.1979 3.07436 90.8989 3.28631C92.9509 3.44734 94.6995 5.1242 95.1003 7.3244C95.2547 8.17349 95.3412 9.03508 95.4717 9.98821Z" fill="black"/>
<path d="M79.8974 24.6527H85.9308C85.6348 22.7917 84.7045 21.4495 82.5879 21.5779C81.0525 21.6711 79.8958 23.3564 79.8974 24.6527ZM88.049 26.4481H79.8875C79.7244 27.72 80.5432 29.3537 81.9336 29.7969C83.4799 30.2895 84.8773 30.2862 86.4898 27.9945C87.0193 28.3197 87.5544 28.6476 88.1943 29.0395C87.7787 29.5357 87.4312 30.0375 86.9991 30.4515C85.0685 32.3031 82.28 32.377 80.1594 31.0467C78.9612 30.2947 78.2827 29.0932 77.9721 27.7362C77.6813 26.4641 77.6886 25.1568 77.9563 23.8771C78.2389 22.5251 78.922 21.369 80.0513 20.5639C81.0968 19.8186 82.3131 19.5376 83.5939 19.7221C85.5245 20.0001 86.8079 21.063 87.5084 22.9065C87.9368 24.0345 88.0527 25.1755 88.049 26.4481Z" fill="black"/>
<path d="M120.836 24.6601C120.787 23.0044 119.564 21.5119 117.797 21.5621C116.061 21.6115 114.965 23.1027 114.84 24.6601H120.836ZM123.076 26.4581H114.765C114.921 28.3 115.613 29.4452 117.028 29.8412C118.724 30.3155 119.849 30.1465 121.467 28.02C121.991 28.3414 122.52 28.666 123.087 29.012C122.109 30.5197 120.886 31.6574 119.029 31.8734C117.008 32.1087 115.201 31.6116 113.945 29.935C112.829 28.4454 112.505 26.6849 112.728 24.848C112.875 23.6395 113.239 22.4976 113.998 21.5086C115.41 19.6713 118.42 19.1321 120.32 20.3157C121.621 21.1266 122.377 22.242 122.677 23.6899C122.859 24.5667 122.938 25.4654 123.076 26.4581Z" fill="black"/>
<path d="M97.2332 26.1085C96.9482 26.0872 96.7275 26.0493 96.5106 26.0582C95.6942 26.0924 94.8723 26.0933 94.0651 26.2023C93.5227 26.2753 92.9619 26.4343 92.4783 26.6858C91.4505 27.2188 91.3806 28.9078 92.243 29.6871C92.7394 30.135 94.933 30.1202 95.503 29.7689C96.8507 28.9361 97.2699 27.6674 97.2332 26.1085ZM99.5793 31.7529H97.5752C97.4979 31.2727 97.4225 30.8117 97.3306 30.2498C96.6393 30.997 95.8909 31.5047 95.0102 31.729C93.5172 32.1086 92.0628 31.9314 90.8419 30.9626C89.724 30.0766 89.5052 28.8047 89.7295 27.4499C89.9759 25.9655 90.9651 25.2107 92.3276 24.7848C93.782 24.33 95.2639 24.2081 96.7717 24.2627C96.8856 24.2668 97.0015 24.2468 97.1155 24.2381C97.1008 22.7219 96.5069 21.8938 95.4478 21.7035C93.4308 21.3416 92.368 21.9587 91.7833 23.7561C91.2005 23.4438 90.6342 23.1392 89.9833 22.7901C90.1009 22.5585 90.2131 22.3245 90.3363 22.0969C91.1986 20.509 92.5795 19.8164 94.3428 19.7285C95.4184 19.6748 96.4315 19.8927 97.303 20.4872C98.2113 21.1072 98.7942 22.0046 98.9468 23.1298C99.0167 23.6523 99.0774 24.1764 99.127 24.7014C99.1491 24.9379 99.1307 25.1782 99.1325 25.4168C99.138 27.5102 99.0056 29.6115 99.5793 31.7529Z" fill="black"/>
<path d="M125.893 42.7387C124.629 42.853 123.423 42.9103 122.236 43.0907C121.579 43.1901 120.923 43.4374 120.548 44.0951C120.088 44.8999 120.353 46.2045 121.081 46.5598C122.166 47.0898 123.372 47.0845 124.416 46.446C125.716 45.6525 126.008 44.3447 125.893 42.7387ZM128.311 48.5457H126.374C126.259 48.0911 126.143 47.6402 126.027 47.1825C125.622 47.4797 125.264 47.7541 124.894 48.0108C123.684 48.8507 122.322 48.783 121.004 48.4885C118.663 47.9657 117.769 45.3935 118.696 43.46C119.224 42.3611 120.143 41.8357 121.276 41.5342C122.69 41.1581 124.116 40.9954 125.575 41.0581C125.655 41.0614 125.738 41.0421 125.812 41.034C125.937 39.8335 125.317 38.7645 124.262 38.5257C123.488 38.3509 122.682 38.2943 121.916 38.6807C121.14 39.0728 120.735 39.728 120.549 40.6225C119.937 40.2662 119.387 39.948 118.753 39.58C118.889 39.2728 118.988 38.9528 119.159 38.677C120.472 36.5579 123.274 36.0548 125.279 36.9191C126.961 37.6443 127.702 38.9826 127.786 40.7177C127.853 42.0782 127.838 43.4445 127.805 44.8071C127.777 45.8753 127.921 46.91 128.189 47.9361C128.235 48.1143 128.261 48.2977 128.311 48.5457Z" fill="black"/>
<path d="M74.2467 6.10352e-05H76.1058V4.33688C76.2933 4.22382 76.4259 4.15782 76.5435 4.07106C77.6934 3.2227 79.0044 3.21995 80.3167 3.43025C81.6089 3.63742 82.8219 4.68688 83.0662 6.10711C83.1913 6.84113 83.2869 7.58948 83.2979 8.33269C83.3292 10.3954 83.3089 12.459 83.3089 14.5223V15.1486H81.3978C81.3978 14.9052 81.3991 14.6907 81.3977 14.4759C81.3828 12.1745 81.3953 9.8724 81.3357 7.5722C81.3177 6.87182 81.2053 6.12292 80.5849 5.63817C80.3187 5.4299 79.9916 5.24258 79.666 5.17769C78.592 4.96335 77.5629 5.10655 76.8363 6.00545C76.3538 6.60233 76.1061 7.3347 76.1094 8.13397C76.1181 10.2654 76.1115 12.3969 76.1107 14.5283V15.1313H74.2467V6.10352e-05Z" fill="black"/>
<path d="M85.5301 42.7548C85.5301 42.5193 85.5503 42.2281 85.5264 41.9406C85.4142 40.5814 84.8957 39.4893 83.5976 38.8444C82.0636 38.0827 79.9473 38.7702 79.301 40.3275C78.7444 41.6693 78.6657 43.0583 79.0167 44.4783C79.5012 46.4379 81.0075 47.2063 82.5751 47.0574C83.4983 46.9697 84.2982 46.5594 84.8406 45.7758C85.4584 44.8844 85.5981 43.8662 85.5301 42.7548ZM87.4736 43.0176C87.5894 44.0713 87.3301 45.2232 86.7473 46.2611C86.0118 47.571 84.9049 48.4499 83.3715 48.7006C81.817 48.9543 80.3378 48.7885 79.0338 47.8488C78.234 47.2723 77.662 46.4859 77.3421 45.5452C76.7171 43.7083 76.6971 41.8445 77.3649 40.0331C77.9174 38.5336 78.9763 37.4762 80.5736 37.0325C81.7588 36.7034 82.9412 36.7275 84.0996 37.0895C84.9399 37.3523 85.6349 37.8797 86.192 38.5715C87.2566 39.895 87.5434 41.2605 87.4736 43.0176Z" fill="black"/>
<path d="M139.646 48.5383H137.73V47.9628C137.73 45.8995 137.737 43.8362 137.728 41.7732C137.724 41.0039 137.616 40.2616 137.27 39.5448C136.991 38.9625 136.539 38.6316 135.972 38.5174C134.647 38.2503 133.584 38.6314 132.907 39.7187C132.569 40.2607 132.462 41.0125 132.446 41.6745C132.389 43.7702 132.424 45.8684 132.424 47.9657V48.5363H130.526V36.9805H132.357C132.374 37.2084 132.392 37.4549 132.413 37.745C132.512 37.7069 132.595 37.6961 132.648 37.6509C133.797 36.699 135.104 36.5023 136.531 36.7996C138.602 37.231 139.423 38.7538 139.574 40.518C139.71 42.0928 139.633 43.6861 139.644 45.2714C139.651 46.3427 139.646 47.4138 139.646 48.5383Z" fill="black"/>
<path d="M143.209 51.6486C143.064 51.094 142.924 50.5541 142.755 49.9066C143.959 50.0712 144.844 49.7952 144.958 48.4243C144.903 48.4072 144.787 48.37 144.603 48.3116C143.174 44.5724 141.729 40.7928 140.266 36.9644H142.318C143.439 39.938 144.572 42.942 145.741 46.041C146.842 42.9545 147.911 39.9659 148.981 36.9677H150.996C150.959 37.1242 150.941 37.2714 150.889 37.4065C150.354 38.8369 149.801 40.26 149.282 41.6955C148.791 43.0509 148.347 44.4231 147.859 45.7794C147.525 46.7053 147.15 47.616 146.795 48.5338C146.574 49.1026 146.363 49.6739 146.136 50.2407C145.725 51.2798 144.458 51.9096 143.209 51.6486Z" fill="black"/>
<path d="M111.106 23.7037C110.462 23.8636 109.856 24.0142 109.225 24.1706C109.107 23.8463 109.004 23.5441 108.885 23.2485C108.539 22.3805 107.916 21.795 106.991 21.6538C106.018 21.5055 104.998 21.4669 104.288 22.3027C103.851 22.8165 103.45 23.4345 103.268 24.0728C102.979 25.0906 103.018 26.1682 103.205 27.219C103.402 28.3114 103.904 29.2357 104.956 29.6984C106.46 30.3598 108.219 29.8905 108.892 28.2875C109.034 27.9464 109.168 27.6013 109.315 27.2386C109.824 27.3203 110.326 27.3967 110.827 27.4829C110.957 27.5055 111.082 27.5585 111.205 27.5964C110.663 31.0775 107.09 32.7517 104.176 31.3986C102.381 30.5655 101.438 29.1124 101.227 27.2006C101.124 26.2623 101.144 25.2976 101.223 24.3546C101.339 22.9724 101.931 21.8038 103.008 20.8825C104.461 19.6398 106.121 19.3799 107.877 19.9365C109.664 20.5036 110.74 21.79 111.106 23.7037Z" fill="black"/>
<path d="M73.5808 44.1402C74.2225 44.2916 74.8401 44.4372 75.502 44.5933C75.325 45.8198 74.792 46.7887 73.9327 47.5893C72.3202 49.0917 69.6052 49.0862 68.0582 48.1895C66.2967 47.1683 65.6147 45.4926 65.384 43.5909C65.2056 42.1242 65.4267 40.6821 66.107 39.3694C66.8772 37.8837 68.1148 36.9649 69.8064 36.7199C71.3807 36.4919 72.7907 36.9039 73.9719 37.9342C74.7782 38.6374 75.2432 39.5844 75.4473 40.7407C74.7929 40.8585 74.1826 40.9685 73.5613 41.08C73.4277 40.7629 73.3013 40.4901 73.196 40.2096C72.6072 38.6434 70.4492 38.0451 69.0152 38.9405C67.9802 39.5868 67.643 40.574 67.42 41.6403C67.1499 42.93 67.3552 44.179 67.9033 45.3747C68.4739 46.6191 70.0289 47.2551 71.4645 46.824C72.7396 46.4413 73.2874 45.4654 73.5808 44.1402Z" fill="black"/>
<path d="M69.27 1.02895V3.4935H72.1589V5.28285H69.2648V5.86172C69.2648 7.87442 69.2966 9.88768 69.2501 11.8993C69.2293 12.7927 69.7679 13.5355 70.7679 13.4228C71.0178 13.3947 71.2738 13.4186 71.5832 13.4186C71.6327 14.0074 71.6785 14.5552 71.7274 15.1377C70.6597 15.2344 69.639 15.2638 68.7235 14.7995C67.9623 14.4131 67.5712 13.6699 67.4183 12.8316C67.3605 12.5151 67.3458 12.1875 67.3451 11.8645C67.3385 9.8862 67.3416 7.90751 67.3416 5.92899V5.30619H65.6778V3.52401H67.3309V1.02895H69.27Z" fill="black"/>
<path d="M25.4016 28.9039C25.4016 30.317 24.2558 31.4624 22.8424 31.4624C21.429 31.4624 20.2831 30.317 20.2831 28.9039C20.2831 27.4908 21.429 26.3452 22.8424 26.3452C24.2558 26.3452 25.4016 27.4908 25.4016 28.9039Z" fill="black"/>
<path d="M30.5308 23.7689C29.1174 23.7689 27.9715 22.6235 27.9715 21.2105C27.9715 19.7974 29.1174 18.6518 30.5308 18.6518C31.9442 18.6518 33.09 19.7974 33.09 21.2105C33.09 22.6235 31.9442 23.7689 30.5308 23.7689Z" fill="black"/>
<path d="M22.8442 23.7689C21.4308 23.7689 20.2852 22.6235 20.2852 21.2105C20.2852 19.7974 21.4308 18.6518 22.8442 18.6518C24.2576 18.6518 25.4035 19.7974 25.4035 21.2105C25.4035 22.6235 24.2576 23.7689 22.8442 23.7689Z" fill="black"/>
<path d="M28.721 30.7141C27.7215 29.7149 27.7216 28.095 28.7211 27.0957C29.7207 26.0964 31.3409 26.0964 32.3403 27.0956C33.3398 28.0949 33.3398 29.7148 32.3403 30.7141C31.3409 31.7133 29.7205 31.7134 28.721 30.7141Z" fill="black"/>
</svg>
