<svg xmlns="http://www.w3.org/2000/svg" version="1.1" xmlns:xlink="http://www.w3.org/1999/xlink" width="54" height="50"><svg width="54" height="50" viewBox="0 0 54 50" fill="none" xmlns="http://www.w3.org/2000/svg">
<path d="M18.4156 0C16.893 0 15.2519 0.404971 13.4831 1.25718C11.6796 2.12594 10.4032 3.64361 9.56785 5.46623C8.0798 8.71296 8.2576 11.8974 10.1707 15.0531C10.1154 15.0527 10.0601 15.0522 10.0049 15.0522C7.25792 15.0522 4.88989 15.8336 2.96902 17.72C1.02242 19.6316 0.0264007 21.9754 0.00047534 24.7063C-0.0201178 26.8964 0.628381 28.8837 1.95131 30.6358C3.94388 33.2742 6.64435 34.4625 10.0045 34.4625C10.0378 34.4625 10.0715 34.4625 10.1049 34.4621C8.67958 36.8961 8.14729 39.3921 8.79818 42.0717C9.44834 44.748 10.956 46.8109 13.3241 48.2058C14.7649 49.0545 16.3147 49.4766 17.934 49.4766C18.3801 49.4766 18.8313 49.4444 19.2871 49.3806C22.6175 48.9132 24.9945 47.0532 26.6381 44.0861C26.76 44.28 26.8354 44.3933 26.904 44.51C28.7798 47.7074 31.5641 49.426 35.2746 49.426H35.283C38.8267 49.4236 41.6005 47.8262 43.3831 44.7835C45.2527 41.5925 45.2283 38.2785 43.5065 34.9919C43.412 34.8116 43.3307 34.6244 43.212 34.3737C43.3881 34.3814 43.5628 34.3853 43.7358 34.3853C46.1423 34.3853 48.2382 33.6402 50.045 32.0803C52.0001 30.3924 53.0608 28.2231 53.3201 25.6798C53.5529 23.3986 53.0469 21.2543 51.7697 19.3415C49.7781 16.3594 46.8987 15.0288 43.2803 15.0288C43.2579 15.0288 43.2353 15.0288 43.2129 15.029C44.7296 12.681 45.1356 10.2376 44.5858 7.63537C44.034 5.0234 42.6471 2.94837 40.4122 1.49928C38.8933 0.51416 37.2283 0.0154441 35.4572 0.0154441C35.1045 0.0154441 34.7472 0.035113 34.3863 0.0748193C30.9195 0.456073 28.4338 2.29414 26.7766 5.28535C24.469 1.9059 21.7197 0 18.4156 0ZM18.4156 3.10132C19.1856 3.10132 21.5292 3.10132 24.2149 7.03408L26.5679 10.4795C26.7902 10.8049 27.2774 10.7823 27.4683 10.4376L29.4903 6.78794C30.7198 4.56843 32.3833 3.41492 34.7254 3.15757C34.9721 3.13036 35.2183 3.11658 35.4572 3.11658C36.6343 3.11658 37.7031 3.43864 38.7243 4.10096C40.2405 5.08424 41.165 6.45006 41.5511 8.27618C41.9431 10.1317 41.6432 11.7428 40.6071 13.3463L38.0322 17.3322C37.8042 17.6851 38.0587 18.1504 38.479 18.1487L43.225 18.13H43.2803C46.0124 18.13 47.8349 19.0347 49.1899 21.0634C50.0555 22.36 50.3971 23.7673 50.2342 25.3655C50.0496 27.1762 49.3246 28.6049 48.0179 29.733C46.792 30.7913 45.4314 31.2841 43.7358 31.2841C43.6086 31.2841 43.4778 31.2814 43.3473 31.2755L39.0808 31.0893C38.6822 31.072 38.4082 31.4847 38.5794 31.845L40.4093 35.7027C40.4451 35.7781 40.4769 35.8469 40.5067 35.9114C40.5825 36.0748 40.6608 36.2443 40.7586 36.4309C42.0223 38.8428 42.0056 40.9987 40.7066 43.216C39.4822 45.3061 37.7073 46.3231 35.2746 46.3249C32.7436 46.3249 30.934 45.2497 29.5793 42.9405C29.5057 42.8151 29.4381 42.7091 29.3664 42.5967C29.3364 42.5497 29.3029 42.4971 29.2639 42.4355L26.9459 38.7491C26.7315 38.4079 26.2298 38.4219 26.0345 38.7743L23.9244 42.5839C22.6894 44.8137 21.0789 45.9975 18.8557 46.3095C18.5443 46.3532 18.2341 46.3753 17.934 46.3753C16.8527 46.3753 15.86 46.1001 14.8985 45.5337C13.2754 44.5778 12.2657 43.2057 11.8125 41.3399C11.3843 39.577 11.6923 37.8893 12.7817 36.029L15.0695 32.122C15.2773 31.7676 15.0195 31.322 14.6086 31.3253L10.0805 31.361L10.0045 31.3613C7.50191 31.3613 5.78165 30.5611 4.42691 28.7672C3.52136 27.5679 3.08798 26.2493 3.10232 24.7357C3.12034 22.8342 3.78778 21.2631 5.1427 19.9324C6.37866 18.7187 7.92352 18.1535 10.0049 18.1535C10.0483 18.1535 10.0919 18.1537 10.1355 18.1542L14.7639 18.207C15.1793 18.2116 15.438 17.7583 15.2229 17.4031L12.8236 13.4455C11.4633 11.2021 11.3249 9.07711 12.3878 6.75815C12.9854 5.45428 13.8067 4.54361 14.8296 4.05096C16.1378 3.42081 17.3443 3.10132 18.4156 3.10132Z" fill="black"></path>
<path d="M25.4016 28.5846C25.4016 29.9977 24.2558 31.1431 22.8424 31.1431C21.429 31.1431 20.2831 29.9977 20.2831 28.5846C20.2831 27.1715 21.429 26.0259 22.8424 26.0259C24.2558 26.0259 25.4016 27.1715 25.4016 28.5846Z" fill="black"></path>
<path d="M30.5308 23.4497C29.1174 23.4497 27.9715 22.3042 27.9715 20.8912C27.9715 19.4781 29.1174 18.3325 30.5308 18.3325C31.9442 18.3325 33.09 19.4781 33.09 20.8912C33.09 22.3042 31.9442 23.4497 30.5308 23.4497Z" fill="black"></path>
<path d="M22.8442 23.4497C21.4308 23.4497 20.2852 22.3042 20.2852 20.8912C20.2852 19.4781 21.4308 18.3325 22.8442 18.3325C24.2576 18.3325 25.4035 19.4781 25.4035 20.8912C25.4035 22.3042 24.2576 23.4497 22.8442 23.4497Z" fill="black"></path>
<path d="M28.721 30.3948C27.7215 29.3956 27.7216 27.7757 28.7211 26.7764C29.7207 25.7771 31.3409 25.7771 32.3403 26.7763C33.3398 27.7756 33.3398 29.3955 32.3403 30.3948C31.3409 31.394 29.7205 31.3941 28.721 30.3948Z" fill="black"></path>
</svg><style>@media (prefers-color-scheme: light) { :root { filter: none; } }
@media (prefers-color-scheme: dark) { :root { filter: invert(100%); } }
</style></svg>