<svg width="78" height="31" viewBox="0 0 78 31" fill="none" xmlns="http://www.w3.org/2000/svg">
<path d="M10.956 6.96144C12.7407 6.96144 14.1784 5.50909 14.1784 3.80634C14.1784 1.95334 12.7407 0.601156 10.956 0.601156C9.17132 0.601155 7.78323 1.95334 7.78323 3.80634C7.78323 5.50909 9.22089 6.96144 10.956 6.96144ZM43.8736 15.0746L42.8325 14.0229C41.0974 12.27 40.2547 11.619 40.2547 10.4671C40.2547 9.9663 40.5025 9.46549 41.0974 8.9146C42.8325 7.31201 43.13 7.21185 44.0719 7.21185C45.2617 7.21185 45.807 8.06323 47.9387 10.2167L49.6243 11.9195C50.3183 12.6206 50.3679 13.3718 50.3679 14.0229L50.3679 14.3233C50.3679 15.2248 50.3679 16.0762 51.2107 16.0762C52.0039 16.0762 52.103 15.2749 52.103 14.2733L52.0534 4.30716C52.0534 3.55594 52.0534 3.10521 52.3013 2.85481C52.6483 2.50424 53.1441 2.45416 53.5903 2.90489C54.086 3.45578 53.7886 4.15691 54.4826 4.85804L57.2092 7.6125C58.5973 9.01476 58.5973 8.81444 58.5973 11.7191L58.5973 14.1731C58.5973 16.1763 57.4571 17.4784 55.4245 17.4784L48.1866 17.4784C46.1045 17.4784 46.3524 17.5786 43.8736 15.0746ZM30.2406 2.70456C30.885 2.70456 31.3808 2.70456 31.9261 3.25545L34.7023 5.90974C36.8836 8.01314 37.4289 8.9146 38.6187 8.9146C39.6102 8.9146 40.0068 8.46387 41.7419 6.86128C42.3368 6.31039 42.5847 5.80958 42.5847 5.30877C42.5847 4.40732 42.0889 3.85642 41.0974 2.8548L40.8991 2.65448C38.8666 0.601162 38.9657 0.751404 37.0323 0.751404L29.9431 0.751403C29.1004 0.751402 28.4063 1.00181 28.4063 1.65286C28.4063 2.30391 28.9516 2.70456 29.9431 2.70456L30.2406 2.70456ZM26.3242 2.65448L27.2165 3.50585C28.208 4.50747 28.7038 5.05836 28.7038 5.95982C28.7038 6.46063 28.4559 6.96144 27.861 7.51233C26.1259 9.11492 25.7293 9.56565 24.7378 9.56565C23.548 9.56565 23.0522 8.66419 20.8214 6.56079L16.1614 2.10359C15.616 1.55269 15.3186 1.25221 15.3186 0.851561C15.3186 0.400833 15.616 0.000185836 16.2605 0.000185949C17.0041 0.000186079 17.3016 0.7514 18.2435 0.751401L22.4573 0.751401C24.3908 0.751402 24.242 0.65124 26.3242 2.65448ZM60.1341 4.40732L61.8692 2.65449C63.9018 0.601166 63.8027 0.751409 65.7361 0.751409L74.1638 0.75141C75.1057 0.751411 75.4031 0.000196289 76.1468 0.000196419C76.7912 0.000196532 77.0887 0.400844 77.0887 0.851572C77.0887 1.25222 76.7912 1.60279 76.2459 2.1036L67.2233 10.7676C66.7771 11.2183 66.4301 11.5689 66.4301 12.3201C66.4301 13.2216 67.2729 13.8726 67.8182 14.4235L70.1482 16.7773C70.5944 17.2781 70.7927 17.5786 70.7927 17.8791C70.7927 18.2297 70.5944 18.7305 69.9003 18.7305C69.5533 18.7305 69.2063 18.5301 68.7601 18.1295L59.4897 8.41379C58.8948 7.8629 58.6469 7.36209 58.6469 6.86128C58.6469 5.95983 59.1426 5.40894 60.1341 4.40732ZM35.3963 13.6222C36.5366 12.4203 37.0819 11.7191 37.0819 10.7676C37.0819 10.2668 36.834 9.76598 36.2391 9.21509L31.5295 4.55756C31.0338 4.10683 30.6372 3.9065 30.3397 3.9065C29.9927 3.9065 29.497 4.15691 29.497 4.75788C29.497 5.10845 29.6953 5.45901 30.191 5.95982C30.6372 6.41055 30.9842 6.76112 30.9842 7.51233C30.9842 8.41379 30.1414 9.06484 29.5961 9.61573L23.2505 16.1263C22.7052 16.6771 22.4078 16.9776 22.4078 17.3783C22.4078 17.829 22.7052 18.2297 23.3497 18.2297C24.0933 18.2297 24.3908 17.4784 25.3327 17.4784L29.497 17.4784C31.5791 17.4784 31.4799 17.7288 33.9091 15.1747L35.3963 13.6222ZM16.2605 6.41055C17.946 8.1133 17.9956 8.3637 17.9956 9.06484C17.9956 9.96629 17.3511 10.6173 16.8058 11.1682L9.02259 19.1311C8.57642 19.6319 8.37812 19.9324 8.37812 20.2329C8.37812 20.5835 8.57642 21.0843 9.27047 21.0843C9.61749 21.0843 9.96451 20.8839 10.4107 20.4833L12.6911 18.1295C13.0877 17.7288 13.5835 17.4784 14.0296 17.4784L18.1939 17.4784C20.2761 17.4784 20.1273 17.6788 22.6061 15.1747C23.7463 13.9728 24.2916 13.2716 24.2916 12.3201C24.2916 11.8193 24.0437 11.3185 23.4488 10.7676L17.1528 4.55755C16.6571 4.10683 16.2605 3.9065 15.9631 3.9065C15.616 3.9065 15.1203 4.1569 15.1203 4.75788C15.1203 5.10844 15.3186 5.45901 15.8143 5.95982L16.2605 6.41055ZM11.4022 15.0745C13.1373 13.3217 13.9801 12.6707 13.9801 11.5188C13.9801 11.018 13.7322 10.5172 13.1373 9.9663C11.4022 8.36371 11.1543 7.91298 9.81579 7.91298C8.626 7.91298 8.08068 8.76435 5.94896 10.9178L0.842767 16.1262C0.297445 16.6771 -2.96843e-06 16.9776 -3.03848e-06 17.3783C-3.11729e-06 17.829 0.297444 18.2297 0.941915 18.2297C1.68554 18.2297 1.98298 17.4784 2.9249 17.4784L7.08918 17.4784C9.17132 17.4784 8.97302 17.6287 11.4022 15.0745ZM65.7856 8.76436C67.5703 8.76436 69.008 7.31201 69.008 5.60926C69.008 3.75627 67.5703 2.40408 65.7856 2.40408C64.001 2.40408 62.6129 3.75626 62.6129 5.60926C62.6129 7.31201 64.0505 8.76436 65.7856 8.76436Z" fill="black"/>
<path d="M10.2575 23.1205L10.0098 24.5208L7.52361 25.2067L6.89491 28.7883H4.35155L4.85641 25.9401L1.45574 26.8737L1.7034 25.4829L10.2575 23.1205ZM14.6575 23.5492L14.4479 24.7304H11.3425L11.5426 23.5492H14.6575ZM14.3336 25.3686L14.124 26.5498H11.0186L11.2282 25.3686H14.3336ZM13.6001 28.7883L16.8484 23.5492H19.4013L16.1435 28.7883H13.6001ZM25.8879 27.8453H26.8405L26.6785 28.7883H20.1629L20.3344 27.8453H23.8494L24.2495 25.5496H20.7345L20.906 24.597H26.4594L25.8879 27.8453ZM27.6049 26.5403L27.8145 25.3591H33.1774L32.9679 26.5403H27.6049ZM35.9784 24.9399C36.226 24.9399 36.4293 25.0193 36.588 25.1781C36.7468 25.3369 36.8262 25.5369 36.8262 25.7782C36.8262 26.0894 36.7023 26.3656 36.4547 26.6069C36.207 26.8483 35.9276 26.9689 35.6164 26.9689C35.3687 26.9689 35.1623 26.8895 34.9972 26.7308C34.8385 26.572 34.7591 26.372 34.7591 26.1307C34.7591 25.8195 34.8829 25.5432 35.1306 25.3019C35.3783 25.0606 35.6608 24.9399 35.9784 24.9399ZM38.8417 24.7304L39.0512 23.5492H47.1957L46.9861 24.7304H38.8417ZM38.4702 26.8546L38.6797 25.6734H46.8242L46.6146 26.8546H43.7569L42.8996 28.7883H40.3562L41.2136 26.8546H38.4702ZM44.4999 21.606H45.7002L45.4906 22.7586H44.2999L44.4999 21.606ZM46.1383 22.7586L46.3384 21.606H47.5386L47.3386 22.7586H46.1383ZM56.7902 23.1205L56.4092 23.9874H56.9617L56.7521 25.1686H55.8853L54.2755 28.7883H51.7321L53.3419 25.1686H51.5321L51.2368 26.8737H48.6934L48.9887 25.1686H48.3028L48.5124 23.9874H49.1983L49.3507 23.1205H51.894L51.7416 23.9874H53.8659L54.2469 23.1205H56.7902ZM55.5329 21.606L55.3328 22.7586H54.1326L54.3326 21.606H55.5329ZM55.9806 22.7586L56.1806 21.606H57.3808L57.1713 22.7586H55.9806ZM66.9466 23.1205L66.6989 24.5208L64.2127 25.2067L63.584 28.7883H61.0406L61.5455 25.9401L58.1448 26.8737L58.3925 25.4829L66.9466 23.1205ZM71.4513 23.5492L71.2418 24.7304H67.7077L67.9173 23.5492H71.4513ZM69.9749 28.7883L73.2231 23.5492H75.7665L72.5182 28.7883H69.9749Z" fill="black"/>
</svg>
